# xmcd
#
# Track frame offsets:
# 150
# 13105
# 30092
# 42499
# 63439
# 71018
# 82211
# 91086
# 104292
# 114428
# 129218
# 140906
#
# Disc length: 2054 seconds
#
#
# Revision: 0
# Processed by: cddbd v1.5.2PL0 Copyright (c) Steve Scherf et al.
# Submitted via: FreeRIP 2.951 
#
DISCID=9e08040c
DTITLE=Fescue - Now and Again
DYEAR=1900
DGENRE=Bluegrass
TTITLE0=Distant Train
TTITLE1=Wait A Minute
TTITLE2=How Mountain Girls Can Love
TTITLE3=Simon Crutchfield's Grave
TTITLE4=Richmond
TTITLE5=Redwood Hill
TTITLE6=I Ain't Broke, But I'm Badly Bent
TTITLE7=Gold Watch and Chain
TTITLE8=John Hardy
TTITLE9=House of the Rising Sun
TTITLE10=Just Any Day Now
TTITLE11=Ugly Girl Blues
EXTD=
EXTT0=
EXTT1=
EXTT2=
EXTT3=
EXTT4=
EXTT5=
EXTT6=
EXTT7=
EXTT8=
EXTT9=
EXTT10=
EXTT11=
PLAYORDER=
